<svg width="324" height="123" viewBox="0 0 324 123" fill="none" xmlns="http://www.w3.org/2000/svg">
<path d="M64.0898 3.90347C77.7211 -2.7281 82.3727 0.348442 89.9941 3.90347C104.08 -1.18989 114.498 3.21043 118.699 10.1378C131.989 12.6543 135.091 15.7309 139.742 23.422C159.899 31.1134 159.899 43.4202 159.306 57.2443C164.907 69.0209 163.506 69.7136 159.306 78.0265C160.706 87.0322 153.697 94.1834 150.204 95.3449C149.045 100.337 149.959 104.276 144.312 108.582C108.731 135.717 97.47 118.711 89.9941 104.951C83.833 108.276 76.8861 103.261 71.5185 101.875C51.9154 104.646 46.1087 96.038 40.5078 84.9543C15.087 80.804 -2.03195 74.4599 0.194306 57.2443C1.63178 46.1283 3.16903 38.6357 12.5986 31.1144C15.6996 15.7316 29.6545 12.6547 37.4072 11.1164C48.2609 0.348399 57.5643 4.9633 64.0898 3.90347Z" fill="#F58115"/>
</svg>
