<svg width="324" height="123" viewBox="0 0 324 123" fill="none" xmlns="http://www.w3.org/2000/svg">
<path d="M166.3 70.3998H184.78V77.8998H166.3V70.3998ZM171.16 60.7998H179.86V97.9998H171.16V60.7998ZM202.682 98.5998C199.482 98.5998 196.702 98.0198 194.342 96.8598C192.022 95.6598 190.222 93.9798 188.942 91.8198C187.662 89.6598 187.022 87.1198 187.022 84.1998C187.022 81.2398 187.642 78.6798 188.882 76.5198C190.122 74.3598 191.902 72.6998 194.222 71.5398C196.582 70.3798 199.362 69.7998 202.562 69.7998C205.762 69.7998 208.462 70.3598 210.662 71.4798C212.862 72.5598 214.542 74.1398 215.702 76.2198C216.862 78.2998 217.442 80.8198 217.442 83.7798C217.442 84.2198 217.442 84.6598 217.442 85.0998C217.442 85.4998 217.402 85.8398 217.322 86.1198H192.122V81.0798H209.162L207.002 83.8398C207.202 83.5598 207.362 83.2198 207.482 82.8198C207.642 82.3798 207.722 82.0198 207.722 81.7398C207.722 80.5398 207.502 79.4998 207.062 78.6198C206.622 77.7398 206.002 77.0598 205.202 76.5798C204.402 76.0998 203.462 75.8598 202.382 75.8598C201.022 75.8598 199.882 76.1598 198.962 76.7598C198.042 77.3598 197.342 78.2798 196.862 79.5198C196.422 80.7198 196.182 82.2398 196.142 84.0798C196.142 85.7598 196.382 87.1998 196.862 88.3998C197.342 89.5998 198.062 90.5198 199.022 91.1598C199.982 91.7598 201.162 92.0598 202.562 92.0598C204.162 92.0598 205.522 91.7598 206.642 91.1598C207.802 90.5598 208.722 89.6598 209.402 88.4598L217.502 90.4398C216.062 93.1598 214.102 95.1998 211.622 96.5598C209.182 97.9198 206.202 98.5998 202.682 98.5998ZM240.976 81.1998C240.976 79.5598 240.656 78.2998 240.016 77.4198C239.416 76.5398 238.396 76.0998 236.956 76.0998C235.996 76.0998 235.156 76.2998 234.436 76.6998C233.716 77.0998 233.156 77.6798 232.756 78.4398C232.356 79.1998 232.156 80.1198 232.156 81.1998V97.9998H223.036V70.3998H232.156V74.5398C232.956 73.0198 234.036 71.8398 235.396 70.9998C236.796 70.1598 238.516 69.7398 240.556 69.7398C243.996 69.7398 246.496 70.6598 248.056 72.4998C249.616 74.3398 250.396 76.9198 250.396 80.2398V97.9998H240.976V81.1998ZM259.048 87.9798C260.448 89.1398 261.708 90.0598 262.828 90.7398C263.988 91.3798 265.008 91.8398 265.888 92.1198C266.768 92.3598 267.528 92.4798 268.168 92.4798C269.088 92.4798 269.768 92.2798 270.208 91.8798C270.648 91.4798 270.868 90.9598 270.868 90.3198C270.868 89.7198 270.688 89.2198 270.328 88.8198C269.968 88.3798 269.348 87.9598 268.468 87.5598C267.628 87.1598 266.468 86.7398 264.988 86.2998C263.668 85.8198 262.408 85.2598 261.208 84.6198C260.048 83.9398 259.088 83.0398 258.328 81.9198C257.568 80.7998 257.188 79.3598 257.188 77.5998C257.188 75.9198 257.628 74.4998 258.508 73.3398C259.428 72.1798 260.648 71.2998 262.168 70.6998C263.728 70.0998 265.508 69.7998 267.508 69.7998C269.108 69.7998 270.588 69.9798 271.948 70.3398C273.348 70.6998 274.648 71.1798 275.848 71.7798C277.088 72.3798 278.248 73.0798 279.328 73.8798L276.088 79.7598C274.928 78.6798 273.608 77.7998 272.128 77.1198C270.648 76.3998 269.288 76.0398 268.048 76.0398C267.208 76.0398 266.568 76.1998 266.128 76.5198C265.728 76.8398 265.528 77.2598 265.528 77.7798C265.528 78.3798 265.768 78.8798 266.248 79.2798C266.768 79.6798 267.488 80.0598 268.408 80.4198C269.368 80.7398 270.528 81.1598 271.888 81.6798C273.328 82.1998 274.648 82.7998 275.848 83.4798C277.088 84.1598 278.068 85.0198 278.788 86.0598C279.548 87.0998 279.928 88.4798 279.928 90.1998C279.928 93.1598 279.008 95.3998 277.168 96.9198C275.368 98.3998 272.828 99.1398 269.548 99.1398C267.548 99.1398 265.688 98.8998 263.968 98.4198C262.288 97.9798 260.728 97.3798 259.288 96.6198C257.848 95.8198 256.508 94.9398 255.268 93.9798L259.048 87.9798ZM283.291 84.1998C283.291 81.2798 283.971 78.7398 285.331 76.5798C286.691 74.4198 288.571 72.7398 290.971 71.5398C293.371 70.3398 296.071 69.7398 299.071 69.7398C302.071 69.7398 304.751 70.3398 307.111 71.5398C309.511 72.7398 311.391 74.4198 312.751 76.5798C314.151 78.7398 314.851 81.2798 314.851 84.1998C314.851 87.0798 314.151 89.5998 312.751 91.7598C311.391 93.9198 309.511 95.5998 307.111 96.7998C304.751 97.9998 302.071 98.5998 299.071 98.5998C296.071 98.5998 293.371 97.9998 290.971 96.7998C288.571 95.5998 286.691 93.9198 285.331 91.7598C283.971 89.5998 283.291 87.0798 283.291 84.1998ZM292.591 84.1998C292.591 85.6398 292.891 86.8798 293.491 87.9198C294.091 88.9198 294.871 89.6998 295.831 90.2598C296.791 90.8198 297.871 91.0998 299.071 91.0998C300.231 91.0998 301.291 90.8198 302.251 90.2598C303.251 89.6998 304.031 88.9198 304.591 87.9198C305.191 86.8798 305.491 85.6398 305.491 84.1998C305.491 82.7598 305.191 81.5198 304.591 80.4798C304.031 79.4398 303.251 78.6398 302.251 78.0798C301.291 77.5198 300.231 77.2398 299.071 77.2398C297.871 77.2398 296.791 77.5198 295.831 78.0798C294.871 78.6398 294.091 79.4398 293.491 80.4798C292.891 81.5198 292.591 82.7598 292.591 84.1998Z" fill="#F58115"/>
<path d="M64.0898 3.90344C77.7211 -2.72813 82.3727 0.348413 89.9941 3.90344C104.08 -1.18992 114.498 3.2104 118.699 10.1378C131.989 12.6543 135.091 15.7309 139.742 23.422C150.836 27.6552 155.823 33.2872 157.967 39.7999H141.973L141.112 41.3282L133.218 55.3507L123.964 41.1613L123.076 39.7999H59.125V101H122.078L122.939 99.4738L131.242 84.7482L140.91 99.6339L141.798 101H149.24C148.706 103.596 147.666 106.025 144.312 108.582C108.731 135.717 97.4701 118.711 89.9941 104.951C83.8331 108.276 76.8861 103.261 71.5186 101.875C51.9155 104.646 46.1087 96.038 40.5078 84.9542C15.0871 80.804 -2.03192 74.4599 0.194336 57.2443C1.63181 46.1282 3.16906 38.6357 12.5986 31.1144C15.6997 15.7316 29.6545 12.6547 37.4072 11.1163C48.2609 0.34837 57.5643 4.96327 64.0898 3.90344ZM124.934 69.5255L106.826 98.0001L124.933 69.5255L107.576 42.7999L124.934 69.5255ZM143.426 98.0001L131.062 78.962L120.326 98.0001L131.062 78.9611L143.426 98.0001ZM105.061 44.4337L121.367 69.5421L104.295 96.3907L103.825 97.129V84.5001H76V78.5753H99.7002V62.0753H76V56.2999H102.775V40.9161L105.061 44.4337ZM159.107 44.9552C159.615 48.8458 159.489 52.9724 159.306 57.2443C164.907 69.0209 163.506 69.7136 159.306 78.0265C160.065 82.9109 158.349 87.2483 156.063 90.382L142.92 70.2277L159.107 44.9552ZM96.7002 75.5743V75.5753H73V75.5743H96.7002Z" fill="#F58115"/>
</svg>
